<?xml version="1.0" standalone="no"?>
<!DOCTYPE svg PUBLIC "-//W3C//DTD SVG 20010904//EN"
 "http://www.w3.org/TR/2001/REC-SVG-20010904/DTD/svg10.dtd">
<svg version="1.0" xmlns="http://www.w3.org/2000/svg"
 width="200.000000pt" height="200.000000pt" viewBox="0 0 200.000000 200.000000"
 preserveAspectRatio="xMidYMid meet">
<metadata>
Created by potrace 1.14, written by Peter Selinger 2001-2017
</metadata>
<g transform="translate(0.000000,200.000000) scale(0.100000,-0.100000)"
fill="#000000" stroke="none">
<path d="M1536 1897 c-15 -56 -29 -111 -31 -122 -2 -11 -12 -56 -23 -100 -11
-44 -23 -92 -26 -108 l-6 -27 -38 19 c-38 19 -120 48 -163 57 -78 16 -219 24
-219 12 0 -4 10 -9 23 -10 35 -2 38 -3 115 -26 85 -27 182 -71 270 -124 34
-21 62 -37 63 -35 0 1 2 9 4 17 1 8 11 44 20 80 9 36 19 76 21 90 3 14 10 43
16 65 6 22 12 47 13 55 2 8 4 17 5 20 6 29 64 -175 87 -305 2 -11 7 -42 13
-70 5 -27 12 -72 15 -100 12 -94 17 -60 12 70 -8 179 -14 222 -48 364 -24 98
-80 265 -93 278 -1 2 -15 -43 -30 -100z"/>
<path d="M422 1970 c-6 -14 -19 -49 -31 -78 -24 -60 -60 -191 -66 -242 -5 -33
-8 -53 -21 -110 -8 -38 -14 -323 -6 -316 3 4 7 25 9 46 2 33 23 164 37 235 10
48 46 183 60 220 17 48 14 53 62 -142 l38 -153 24 16 c107 70 301 152 403 169
34 6 39 9 24 15 -10 4 -33 6 -50 4 -16 -2 -55 -5 -85 -8 -62 -6 -176 -39 -232
-67 l-36 -19 -8 33 c-4 17 -9 38 -10 44 -8 43 -88 351 -95 363 -6 12 -10 10
-17 -10z"/>
<path d="M575 1090 c8 -39 40 -80 79 -100 22 -10 43 -17 48 -14 11 7 6 42 -11
72 -27 50 -124 85 -116 42z"/>
<path d="M1353 1090 c-35 -21 -56 -52 -61 -92 -3 -25 -1 -26 26 -19 47 14 72
34 92 77 11 22 20 43 20 47 0 14 -46 6 -77 -13z"/>
<path d="M955 783 c-57 -11 -104 -52 -105 -89 0 -25 34 -58 80 -78 l35 -14 -1
-84 c-1 -94 -18 -143 -66 -183 -67 -56 -172 -9 -194 88 -13 54 -2 153 22 199
8 16 10 28 4 28 -5 0 -10 -7 -10 -15 0 -8 -4 -15 -8 -15 -5 0 -18 -31 -29 -68
-20 -67 -24 -134 -9 -179 9 -29 6 -28 -52 1 -105 53 -202 142 -275 251 -41 61
-32 34 15 -46 50 -84 141 -179 224 -234 33 -22 104 -56 159 -77 55 -21 109
-42 120 -47 45 -21 98 -32 142 -30 46 3 127 24 148 39 6 4 35 15 65 25 66 21
200 86 200 97 0 4 4 8 10 8 22 0 133 107 180 175 30 43 73 125 66 125 -2 0
-15 -19 -29 -42 -35 -59 -109 -141 -165 -182 -85 -61 -175 -105 -157 -76 13
22 17 112 6 155 -14 56 -60 155 -72 155 -5 0 -3 -10 5 -22 53 -85 53 -240 -1
-297 -28 -31 -82 -50 -113 -41 -75 21 -110 90 -110 214 l0 84 29 7 c36 8 81
51 81 77 0 30 -18 56 -50 73 -30 16 -108 25 -145 18z m55 -470 c0 -5 16 -19
36 -32 26 -18 32 -26 22 -33 -13 -8 -126 -9 -141 -1 -5 3 9 20 30 39 38 33 53
41 53 27z"/>
<path d="M284 586 c-24 -63 14 -242 64 -294 6 -7 12 -17 12 -22 0 -14 129
-139 173 -167 62 -40 136 -74 189 -88 l46 -13 0 108 0 108 -82 27 c-122 40
-194 82 -268 157 -59 60 -128 168 -120 191 4 13 -8 7 -14 -7z"/>
<path d="M1680 533 c-48 -98 -144 -190 -251 -241 -46 -22 -110 -47 -141 -56
l-58 -17 0 -109 c0 -61 2 -110 4 -110 3 0 37 12 76 26 125 45 231 121 309 222
57 74 79 120 97 207 6 28 7 135 2 141 -3 2 -20 -26 -38 -63z"/>
<path d="M832 160 c-6 -4 -7 -87 -3 -137 1 -10 42 -13 171 -13 155 0 170 2
171 18 5 77 2 125 -6 130 -12 7 -324 9 -333 2z"/>
</g>
</svg>
