<?xml version="1.0" standalone="no"?>
<!DOCTYPE svg PUBLIC "-//W3C//DTD SVG 20010904//EN"
 "http://www.w3.org/TR/2001/REC-SVG-20010904/DTD/svg10.dtd">
<svg version="1.0" xmlns="http://www.w3.org/2000/svg"
 width="260.000000pt" height="260.000000pt" viewBox="0 0 260.000000 260.000000"
 preserveAspectRatio="xMidYMid meet">
<metadata>
Created by potrace 1.14, written by Peter Selinger 2001-2017
</metadata>
<g transform="translate(0.000000,260.000000) scale(0.100000,-0.100000)"
fill="#000000" stroke="none">
<path d="M553 2584 c3 -3 -7 -34 -23 -69 -16 -35 -26 -66 -23 -69 4 -3 1 -6
-6 -6 -8 0 -11 -7 -7 -15 3 -8 0 -15 -6 -15 -6 0 -9 -2 -6 -5 3 -3 -5 -40 -18
-82 -14 -41 -27 -93 -30 -116 -2 -22 -8 -45 -12 -51 -3 -6 -8 -24 -9 -41 -5
-49 -11 -90 -13 -90 -3 0 -9 -67 -12 -135 -2 -36 -7 -68 -13 -72 -6 -5 -5 -8
4 -8 8 0 11 -6 6 -17 -11 -29 -13 -63 -3 -63 5 0 6 -5 2 -11 -13 -21 -10 -109
4 -114 7 -3 10 0 7 6 -4 5 -2 16 5 24 8 9 8 15 0 20 -6 3 -7 11 -3 17 3 7 8
29 9 50 2 21 6 43 9 47 3 5 8 31 11 58 3 26 7 55 10 64 5 20 16 86 17 112 1 9
4 17 8 17 7 0 24 87 21 103 -1 4 2 7 7 7 5 0 8 8 6 18 -1 9 1 22 4 27 4 6 13
30 21 55 15 49 30 73 31 50 1 -16 2 -21 19 -85 10 -38 13 -51 25 -102 26 -117
60 -233 67 -233 4 0 8 5 8 10 0 6 5 10 10 10 6 0 28 11 49 24 57 36 203 109
218 109 7 0 13 4 13 7 0 7 152 60 172 60 4 1 25 7 45 14 21 7 46 12 56 10 10
-1 16 3 14 9 -4 12 -116 17 -123 5 -2 -3 -18 -3 -34 2 -18 5 -32 5 -36 -1 -3
-6 -12 -8 -19 -5 -7 2 -18 -1 -24 -7 -6 -6 -11 -8 -11 -4 0 3 -21 -1 -47 -9
-27 -8 -55 -16 -63 -18 -24 -6 -124 -47 -135 -55 -18 -15 -45 -8 -46 11 -1 17
-4 30 -9 46 -1 4 -2 10 -2 13 1 4 -3 22 -9 40 -12 38 -20 75 -22 102 -1 9 -5
17 -9 17 -4 0 -7 3 -6 8 1 4 -2 27 -7 52 -5 25 -8 48 -7 53 1 4 -2 7 -7 7 -6
0 -8 9 -6 20 2 11 0 20 -6 20 -5 0 -9 14 -9 30 0 17 -4 30 -8 30 -7 0 -12 24
-15 68 0 6 -4 12 -9 12 -4 0 -7 3 -7 8 3 19 -2 32 -13 32 -6 0 -9 -3 -5 -6z"/>
<path d="M2023 2563 c-4 -16 -8 -30 -8 -33 -1 -3 -4 -14 -8 -25 -3 -11 -9 -33
-12 -50 -9 -47 -10 -49 -18 -62 -5 -7 -6 -13 -3 -13 3 0 -1 -18 -9 -39 -7 -22
-11 -42 -8 -45 4 -3 2 -6 -3 -6 -6 0 -10 -10 -11 -22 -1 -20 -5 -42 -17 -83
-2 -5 -7 -28 -11 -50 -5 -22 -10 -42 -10 -45 -1 -3 -5 -22 -9 -42 -9 -40 -20
-43 -63 -20 -32 17 -161 63 -184 65 -10 1 -19 4 -19 7 0 4 -12 7 -27 7 -16 1
-46 4 -68 8 -55 8 -157 13 -172 7 -19 -6 -5 -22 20 -22 42 0 67 -4 67 -10 0
-4 6 -7 13 -8 23 -1 56 -11 76 -21 11 -6 24 -10 28 -10 4 1 21 -3 36 -9 16 -7
33 -12 38 -12 5 0 9 -4 9 -8 0 -5 6 -9 13 -9 21 -1 157 -70 150 -77 -4 -3 3
-6 15 -6 12 0 22 -4 22 -10 0 -5 6 -10 13 -10 6 0 23 -9 37 -20 31 -24 55 -25
57 -2 1 9 8 36 16 59 8 24 10 40 4 36 -6 -4 -7 -1 -1 8 15 23 32 79 23 73 -5
-3 -6 2 -3 10 3 9 9 16 13 16 4 0 7 10 6 22 -1 13 6 49 16 80 9 32 15 58 12
58 -3 0 0 6 6 13 6 8 8 17 4 20 -3 4 -1 7 5 7 7 0 13 -7 13 -15 2 -18 4 -25
13 -47 4 -9 9 -23 10 -32 1 -8 5 -19 9 -22 4 -4 7 -17 7 -28 0 -12 9 -45 19
-73 10 -29 16 -55 13 -58 -4 -3 0 -10 8 -15 11 -7 12 -10 2 -10 -7 0 -10 -4
-7 -10 3 -5 8 -19 11 -30 2 -11 7 -30 10 -42 3 -13 7 -36 9 -53 5 -41 12 -73
21 -87 4 -7 3 -8 -4 -4 -9 5 -9 0 -2 -19 6 -15 8 -31 4 -36 -3 -5 0 -9 7 -9 8
0 8 -4 -1 -15 -8 -10 -9 -15 -2 -15 6 0 10 -12 9 -27 -1 -14 3 -28 8 -30 6 -2
10 46 10 131 0 74 -3 132 -7 130 -4 -3 -7 10 -6 28 0 37 -8 117 -18 163 -3 17
-7 39 -9 50 -1 11 -3 20 -4 20 -3 0 -11 40 -15 75 -2 14 -5 25 -6 25 -1 0 -4
11 -7 25 -2 14 -6 30 -7 35 -2 6 -6 24 -11 40 -4 17 -12 36 -18 43 -5 6 -7 12
-3 12 3 0 0 15 -8 34 -8 19 -12 37 -8 40 3 3 1 6 -5 6 -9 0 -14 11 -28 63 -2
4 -4 10 -5 15 -1 4 -2 9 -2 12 0 3 -6 11 -14 18 -11 10 -15 8 -21 -15z"/>
<path d="M756 1437 c-14 -11 -14 -16 4 -55 11 -24 25 -48 32 -55 22 -21 78
-59 78 -52 0 3 8 2 18 -4 11 -6 20 -5 27 3 14 16 17 36 6 36 -5 0 -11 13 -14
30 -12 58 -114 124 -151 97z"/>
<path d="M1789 1436 c-13 -6 -27 -15 -31 -21 -4 -5 -8 -6 -8 -2 0 5 -12 -6
-27 -24 -32 -38 -53 -92 -43 -109 11 -18 74 -1 106 28 29 27 69 82 59 82 -2 0
0 11 5 24 7 20 5 25 -14 28 -12 3 -33 0 -47 -6z"/>
<path d="M1260 1019 c0 -4 -8 -6 -17 -5 -44 7 -141 -60 -130 -89 3 -7 1 -16
-6 -18 -9 -3 -8 -8 2 -20 7 -10 10 -17 5 -17 -20 0 64 -62 98 -72 42 -12 40
-4 40 -146 0 -59 -4 -97 -12 -107 -7 -8 -9 -15 -5 -15 5 0 1 -8 -8 -18 -10
-10 -15 -21 -12 -24 3 -3 -15 -24 -41 -47 -43 -38 -63 -47 -89 -41 -5 1 -21 4
-34 6 -13 3 -34 10 -45 16 -28 14 -76 70 -70 80 3 4 0 8 -7 8 -7 0 -9 3 -6 7
4 3 2 12 -4 19 -16 20 -16 164 0 174 9 5 10 10 3 14 -7 4 -2 28 14 67 31 75
25 88 -9 20 -13 -28 -27 -48 -31 -46 -3 3 -4 2 -2 -1 2 -3 -4 -33 -14 -67 -20
-70 -20 -198 0 -222 9 -11 9 -15 1 -15 -7 0 -9 -5 -5 -12 4 -6 -9 1 -29 16
-20 15 -39 27 -44 27 -13 -1 -132 78 -151 99 -9 11 -20 20 -25 20 -12 0 -97
90 -97 103 0 5 -7 6 -16 3 -8 -3 -13 -2 -10 2 3 5 -13 35 -35 68 -51 75 -53
76 -33 28 9 -21 19 -41 23 -44 3 -3 15 -21 25 -40 11 -19 25 -40 30 -47 29
-33 36 -43 32 -43 -2 0 25 -29 60 -65 36 -36 67 -65 69 -65 5 0 40 -27 67 -52
10 -10 18 -15 18 -12 0 3 12 -3 28 -13 47 -33 182 -95 212 -98 8 -1 26 -7 40
-12 77 -34 101 -43 107 -44 5 -1 15 -5 24 -10 51 -27 249 -26 249 2 0 4 6 6
13 3 7 -2 37 8 67 22 30 15 62 28 70 29 8 2 16 4 18 5 1 2 7 4 12 5 6 1 12 4
15 5 3 1 9 3 14 4 5 0 13 4 17 8 4 5 16 8 26 8 10 0 18 5 18 10 0 6 3 9 8 8
13 -3 92 34 92 43 0 5 6 9 14 9 8 0 22 7 30 16 9 8 16 13 16 9 0 -4 6 0 14 7
7 7 30 27 51 43 63 50 171 168 181 198 3 9 9 17 14 17 5 0 12 10 16 22 3 12
15 30 25 41 18 20 17 43 -2 31 -5 -3 -7 -10 -4 -15 4 -5 1 -9 -5 -9 -6 0 -13
-7 -17 -15 -10 -27 -129 -155 -185 -201 -33 -26 -134 -87 -145 -87 -7 0 -13
-4 -13 -8 0 -4 -14 -12 -31 -18 -40 -14 -44 -14 -31 2 5 6 12 27 15 45 3 19 8
36 11 39 3 3 1 14 -4 24 -7 12 -7 20 0 24 6 4 7 11 4 17 -4 5 -8 26 -10 46 -2
20 -8 38 -14 40 -5 2 -8 7 -5 12 3 4 -5 30 -17 57 -12 26 -21 51 -20 56 1 4
-2 7 -7 7 -5 0 -13 9 -16 20 -3 11 -11 20 -18 20 -8 0 -8 -3 1 -12 7 -7 12
-20 12 -30 0 -10 4 -18 9 -18 5 0 12 -17 16 -37 5 -21 10 -45 12 -53 2 -8 5
-41 7 -74 3 -51 0 -79 -15 -135 -6 -20 -60 -77 -89 -92 -58 -29 -118 -20 -164
25 -60 58 -68 83 -72 231 l-4 110 48 17 c64 23 95 58 95 105 0 63 -80 113
-190 117 -24 1 -43 -1 -43 -5z m73 -633 c20 -19 46 -37 58 -41 21 -7 22 -8 3
-19 -26 -15 -155 -17 -173 -3 -8 7 -16 11 -18 10 -1 -2 -2 0 0 5 1 4 5 6 8 5
4 -1 24 15 45 36 22 22 40 39 41 40 1 1 17 -14 36 -33z"/>
<path d="M965 881 c-3 -5 -2 -12 3 -15 5 -3 9 1 9 9 0 17 -3 19 -12 6z"/>
<path d="M2166 845 c-3 -8 -1 -15 4 -15 6 0 10 7 10 15 0 8 -2 15 -4 15 -2 0
-6 -7 -10 -15z"/>
<path d="M374 779 c-6 -10 -16 -77 -16 -104 0 -27 14 -115 24 -150 7 -22 12
-42 13 -45 0 -3 6 -15 13 -27 7 -13 9 -23 5 -23 -4 0 2 -7 13 -15 10 -8 15
-15 9 -15 -7 0 -7 -3 0 -8 17 -12 75 -90 75 -101 0 -5 9 -13 21 -16 11 -4 18
-9 16 -12 -3 -2 13 -21 36 -41 23 -20 44 -40 45 -44 2 -5 8 -8 12 -8 5 0 20
-10 34 -23 14 -13 43 -32 65 -43 23 -10 41 -22 41 -26 0 -4 7 -5 15 -2 8 4 15
1 15 -6 0 -6 5 -8 10 -5 6 3 10 2 10 -2 0 -7 53 -32 83 -39 4 -1 8 -2 10 -4 1
-1 9 -3 18 -5 9 -1 26 -6 37 -9 17 -6 20 -3 18 24 -1 17 1 33 6 36 5 3 6 10 2
15 -3 6 -6 55 -6 110 0 81 -3 99 -14 95 -8 -3 -14 -1 -14 4 0 6 -8 10 -17 10
-10 1 -36 8 -58 16 -22 9 -46 16 -52 16 -7 1 -13 5 -13 10 0 5 -4 7 -9 3 -5
-3 -15 0 -23 7 -7 7 -19 14 -26 16 -26 5 -100 44 -120 62 -12 11 -25 20 -30
20 -7 0 -50 41 -150 146 -13 13 -20 24 -16 24 4 0 0 8 -8 18 -18 21 -53 94
-50 105 1 4 -2 7 -7 7 -6 0 -8 9 -6 20 4 22 0 26 -11 9z"/>
<path d="M2215 770 c-3 -5 -3 -14 0 -20 3 -5 3 -10 -2 -10 -4 0 -19 -24 -32
-52 -13 -29 -34 -63 -45 -75 -12 -12 -21 -25 -21 -30 0 -11 -39 -50 -47 -46
-4 2 -9 -6 -13 -17 -4 -11 -11 -18 -16 -15 -5 4 -9 -1 -9 -9 0 -9 -4 -16 -10
-16 -5 0 -18 -10 -30 -22 -11 -12 -20 -18 -20 -14 0 4 -10 -2 -22 -13 -23 -23
-151 -86 -192 -97 -14 -3 -29 -10 -32 -15 -3 -5 -10 -7 -15 -3 -5 3 -17 0 -26
-8 -9 -7 -19 -12 -22 -11 -17 6 -51 -12 -57 -30 -8 -26 -8 -243 1 -257 3 -5
15 -6 28 -1 12 5 24 9 27 9 12 1 48 15 90 33 25 11 49 19 54 19 5 -1 12 3 15
8 3 5 24 19 46 30 44 22 80 50 131 98 18 17 36 29 39 26 3 -3 5 2 5 12 0 9 4
15 8 12 5 -3 15 6 22 19 7 13 18 22 23 18 6 -3 7 -2 4 4 -3 5 5 22 19 38 13
15 24 32 24 37 0 5 5 6 10 3 6 -4 10 -3 9 2 -3 10 23 66 34 74 4 3 9 16 10 27
1 12 6 22 11 22 5 0 7 3 3 6 -3 3 0 25 7 49 8 23 13 53 12 66 -1 13 1 34 6 47
4 12 4 22 0 22 -5 0 -8 16 -7 35 1 20 -3 35 -9 35 -6 0 -4 5 4 10 9 6 10 10 3
10 -6 0 -15 -4 -18 -10z"/>
<path d="M1079 210 c-1 -3 -2 -41 -3 -85 -1 -44 -6 -87 -11 -94 -5 -10 -4 -12
3 -7 7 4 12 2 12 -4 0 -7 68 -10 223 -8 l222 3 0 98 c1 91 0 97 -20 98 -95 4
-425 3 -426 -1z"/>
</g>
</svg>
